<svg width="175" height="29" viewBox="0 0 175 29" fill="none" xmlns="http://www.w3.org/2000/svg">
<path fill-rule="evenodd" clip-rule="evenodd" d="M5.162 20.4055H28.0778C30.1033 20.4055 32.046 19.6009 33.4783 18.1686C34.9106 16.7363 35.7153 14.7936 35.7153 12.768C35.7153 10.7425 34.9106 8.79983 33.4783 7.36752C32.046 5.93521 30.1033 5.13055 28.0778 5.13055C27.6513 5.13501 27.2259 5.17305 26.8054 5.2443C25.7936 3.4202 24.2462 1.95077 22.3722 1.03469C20.4982 0.118611 18.3881 -0.199933 16.3273 0.12213C14.2664 0.444193 12.3541 1.39133 10.849 2.83547C9.34385 4.27962 8.31848 6.15111 7.9115 8.19692C7.77825 8.86534 7.71054 9.54026 7.70838 10.2217V10.9464C7.03297 10.5416 6.27288 10.299 5.48786 10.2376C4.70283 10.1763 3.91427 10.2979 3.18417 10.5928C2.45408 10.8877 1.80234 11.348 1.28021 11.9374C0.758083 12.5268 0.379789 13.2293 0.175071 13.9897C-0.0296469 14.75 -0.0552075 15.5475 0.100399 16.3194C0.256005 17.0913 0.588536 17.8165 1.07185 18.4382C1.55516 19.0598 2.17608 19.5609 2.88579 19.902C3.5955 20.2431 4.37466 20.4165 5.162 20.4055Z" fill="#5856D6"/>
<path d="M26.006 24.5643L26.5 24.9968L26.994 24.5643L28.2254 23.4862L28.2265 23.4853L28.2425 23.4713C30.4088 21.5822 32.2687 19.9603 33.5793 18.4183C34.9006 16.8637 35.75 15.2931 35.75 13.4959C35.75 10.5276 33.3284 8.25 30.325 8.25C28.9042 8.25 27.5345 8.78049 26.5 9.65639C25.4655 8.78049 24.0958 8.25 22.675 8.25C19.6716 8.25 17.25 10.5276 17.25 13.4959C17.25 15.2931 18.0994 16.8637 19.4207 18.4183C20.7313 19.9603 22.5912 21.5822 24.7575 23.4713L24.7735 23.4853L24.7746 23.4862L26.006 24.5643Z" fill="#34C759" stroke="white" stroke-width="1.5"/>
<path d="M58.224 8.984H53.472C52.704 7.04 51.024 5.888 49.176 5.888C46.344 5.888 44.424 8.312 44.424 11.072C44.424 13.952 46.392 16.352 49.2 16.352C51 16.352 52.536 15.344 53.472 13.352H58.224C57.12 17.624 53.448 20.336 49.248 20.336C46.776 20.336 44.448 19.472 42.624 17.672C40.704 15.8 39.888 13.544 39.888 10.856C39.888 6.152 43.944 1.904 49.032 1.904C51.48 1.904 53.448 2.576 55.224 4.088C56.904 5.528 57.912 7.16 58.224 8.984ZM74.4008 20H70.4168V18.56H70.3688C69.7928 19.736 68.2088 20.456 66.4568 20.456C62.5208 20.456 59.7848 17.36 59.7848 13.328C59.7848 9.392 62.6408 6.224 66.4568 6.224C68.0888 6.224 69.6008 6.872 70.3688 8.096H70.4168V6.68H74.4008V20ZM67.0808 16.736C68.9528 16.736 70.4168 15.248 70.4168 13.328C70.4168 11.456 68.9048 9.944 67.0328 9.944C65.2088 9.944 63.7688 11.456 63.7688 13.376C63.7688 15.224 65.2328 16.736 67.0808 16.736ZM81.2672 20H77.2832V6.68H81.0272V8.096H81.0752C81.7712 6.68 82.8752 6.224 84.4112 6.224V10.232C82.0352 10.256 81.2672 11.144 81.2672 12.656V20ZM99.0384 14.552H89.0544C89.2704 16.064 90.5424 17.072 92.1744 17.072C93.2544 17.072 93.9504 16.664 94.5984 15.824H98.6784C97.4064 18.728 94.9824 20.432 92.1744 20.432C88.3344 20.432 85.1184 17.336 85.1184 13.376C85.1184 9.536 88.1904 6.224 92.1024 6.224C96.0864 6.224 99.1344 9.368 99.1344 13.496C99.1344 13.88 99.1104 14.192 99.0384 14.552ZM89.1024 11.864H95.1504C94.8384 10.496 93.6384 9.584 92.1024 9.584C90.6624 9.584 89.4144 10.448 89.1024 11.864ZM119.138 8.984H114.386C113.618 7.04 111.938 5.888 110.09 5.888C107.258 5.888 105.338 8.312 105.338 11.072C105.338 13.952 107.306 16.352 110.114 16.352C111.914 16.352 113.45 15.344 114.386 13.352H119.138C118.034 17.624 114.362 20.336 110.162 20.336C107.69 20.336 105.362 19.472 103.538 17.672C101.618 15.8 100.802 13.544 100.802 10.856C100.802 6.152 104.858 1.904 109.946 1.904C112.394 1.904 114.362 2.576 116.138 4.088C117.818 5.528 118.826 7.16 119.138 8.984ZM125.307 20H121.323V2.24H125.307V20ZM141.918 13.28C141.918 17.456 138.75 20.408 134.742 20.408C130.686 20.408 127.566 17.408 127.566 13.328C127.566 9.2 130.758 6.248 134.742 6.248C138.75 6.248 141.918 9.248 141.918 13.28ZM134.742 16.688C136.614 16.688 137.934 15.104 137.934 13.328C137.934 11.552 136.59 9.968 134.718 9.968C132.966 9.968 131.55 11.504 131.55 13.328C131.55 15.152 132.942 16.688 134.742 16.688ZM156.51 20H152.742V18.584H152.694C152.118 19.808 151.062 20.432 149.262 20.432C146.454 20.432 144.126 18.752 144.126 14.96V6.68H148.11V14.144C148.11 15.896 148.734 16.712 150.246 16.712C151.758 16.712 152.526 15.704 152.526 14.072V6.68H156.51V20ZM173.257 20H169.465V18.56H169.417C168.673 19.784 167.329 20.432 165.433 20.432C161.401 20.432 158.761 17.336 158.761 13.304C158.761 9.32 161.473 6.224 165.361 6.224C166.897 6.224 168.145 6.68 169.273 7.808V2.24H173.257V20ZM166.081 16.712C168.025 16.712 169.489 15.248 169.489 13.28C169.489 11.432 168.073 9.944 166.105 9.944C164.233 9.944 162.745 11.336 162.745 13.28C162.745 15.296 164.161 16.712 166.081 16.712Z" fill="#5856D6"/>
</svg>
