<svg width="205" height="31" viewBox="0 0 205 31" fill="none" xmlns="http://www.w3.org/2000/svg">
<path d="M16.608 7.36H10.624C10.368 5.664 9.664 5.056 8.48 5.056C7.36 5.056 6.4 5.856 6.4 6.912C6.4 8.32 7.68 8.96 10.272 10.08C15.488 12.32 16.8 14.208 16.8 17.312C16.8 21.888 13.664 24.576 8.544 24.576C3.392 24.576 0 21.888 0 16.8V16.288H6.016C6.048 18.24 7.008 19.52 8.512 19.52C9.76 19.52 10.784 18.528 10.784 17.248C10.784 15.36 8.16 14.528 6.016 13.664C2.144 12.096 0.384 10.048 0.384 6.976C0.384 2.944 4.288 0 8.64 0C10.208 0 11.584 0.351999 12.832 0.991999C15.36 2.304 16.576 4.192 16.608 7.36Z" fill="#9747FF"/>
<path d="M35.9118 24.128H30.8878V22.24H30.8238C30.0558 23.872 28.6478 24.704 26.2478 24.704C22.5038 24.704 19.3997 22.464 19.3997 17.408V6.368H24.7118V16.32C24.7118 18.656 25.5438 19.744 27.5598 19.744C29.5758 19.744 30.5998 18.4 30.5998 16.224V6.368H35.9118V24.128Z" fill="#9747FF"/>
<path d="M45.682 30.048H40.37V6.368H45.362V8.32H45.458C46.866 6.56 48.818 5.76 51.026 5.76C56.082 5.76 59.666 9.888 59.666 15.424C59.666 20.48 56.114 24.736 51.026 24.736C48.946 24.736 47.122 24.096 45.682 22.528V30.048ZM49.906 19.776C52.434 19.776 54.354 17.728 54.354 15.264C54.354 12.768 52.434 10.72 49.874 10.72C47.442 10.72 45.458 12.704 45.458 15.264C45.458 17.76 47.378 19.776 49.906 19.776Z" fill="#9747FF"/>
<path d="M67.9945 30.048H62.6825V6.368H67.6745V8.32H67.7705C69.1785 6.56 71.1305 5.76 73.3385 5.76C78.3945 5.76 81.9785 9.888 81.9785 15.424C81.9785 20.48 78.4265 24.736 73.3385 24.736C71.2585 24.736 69.4345 24.096 67.9945 22.528V30.048ZM72.2185 19.776C74.7465 19.776 76.6665 17.728 76.6665 15.264C76.6665 12.768 74.7465 10.72 72.1865 10.72C69.7545 10.72 67.7705 12.704 67.7705 15.264C67.7705 17.76 69.6905 19.776 72.2185 19.776Z" fill="#9747FF"/>
<path d="M111.588 24.128H106.275V6.368H111.268V8.256H111.331C112.259 6.368 113.732 5.76 115.78 5.76V11.104C112.612 11.136 111.588 12.32 111.588 14.336V24.128Z" fill="#9747FF"/>
<path d="M124.925 24.128H119.614V10.4H116.99V6.368H119.614V0.448H124.925V6.368H127.486V10.4H124.925V24.128Z" fill="#9747FF"/>
<path d="M145.264 7.36H139.28C139.024 5.664 138.32 5.056 137.136 5.056C136.016 5.056 135.056 5.856 135.056 6.912C135.056 8.32 136.336 8.96 138.928 10.08C144.144 12.32 145.456 14.208 145.456 17.312C145.456 21.888 142.32 24.576 137.2 24.576C132.048 24.576 128.656 21.888 128.656 16.8V16.288H134.672C134.704 18.24 135.664 19.52 137.168 19.52C138.416 19.52 139.44 18.528 139.44 17.248C139.44 15.36 136.816 14.528 134.672 13.664C130.8 12.096 129.04 10.048 129.04 6.976C129.04 2.944 132.944 0 137.296 0C138.864 0 140.24 0.351999 141.488 0.991999C144.016 2.304 145.232 4.192 145.264 7.36Z" fill="#9747FF"/>
<path d="M155.64 30.048H150.008L152.824 23.232L146.232 6.368H151.896L155.448 16.672H155.512L158.904 6.368H164.536L155.64 30.048Z" fill="#9747FF"/>
<path d="M182.943 24.128H177.631V14.272C177.631 11.872 176.799 10.752 174.847 10.752C172.703 10.752 171.807 11.936 171.807 14.336V24.128H166.495V6.368H171.455V8.256H171.519C172.639 6.432 174.207 5.76 176.351 5.76C179.551 5.76 182.943 7.552 182.943 12.8V24.128Z" fill="#9747FF"/>
<path d="M204.634 13.216H199.258C198.49 11.552 197.114 10.72 195.29 10.72C192.858 10.72 191.194 12.736 191.194 15.232C191.194 17.824 192.954 19.744 195.418 19.744C197.21 19.744 198.458 18.912 199.258 17.376H204.666C203.61 21.824 199.802 24.704 195.258 24.704C190.01 24.704 185.85 20.448 185.85 15.2C185.85 9.888 190.042 5.76 195.162 5.76C199.834 5.76 203.642 8.704 204.634 13.216Z" fill="#9747FF"/>
<path d="M93.4705 19.1167L94.4057 19.4708L94.7599 18.5356C95.0167 17.8576 95.4839 17.0506 96.3006 16.1428L96.9694 15.3994L96.2261 14.7306L95.1108 13.7271L94.3675 13.0583L93.6986 13.8015C92.6205 14.9996 91.9131 16.1782 91.4893 17.297L91.135 18.2323L92.0703 18.5864L93.4705 19.1167Z" fill="#34C759" stroke="white" stroke-width="2"/>
<path d="M93.5 27.7222L93.065 28.6227L93.5139 28.8395L93.9573 28.6115L93.5 27.7222ZM93.5 27.7222C93.9573 28.6115 93.9576 28.6114 93.958 28.6112L93.9589 28.6107L93.9618 28.6092L93.9711 28.6044L94.0042 28.5871C94.0325 28.5722 94.0733 28.5506 94.1256 28.5224C94.2303 28.466 94.3815 28.3833 94.5726 28.2752C94.9545 28.059 95.4965 27.7411 96.1453 27.3292C97.4408 26.5069 99.1725 25.3038 100.909 23.7829C104.333 20.7837 108 16.3516 108 11.0152C108 8.52282 107.176 6.1048 105.756 4.29168C104.332 2.47251 102.268 1.22223 99.8285 1.22223C97.0661 1.22223 94.9527 2.71683 93.4997 4.82849C92.0465 2.7171 89.9343 1.22223 87.1722 1.22223C84.7326 1.22223 82.6686 2.47196 81.2441 4.29105C79.8243 6.10405 79 8.52212 79 11.0152C79 16.5562 82.6586 20.9873 86.0978 23.9462C87.8376 25.443 89.5726 26.6079 90.8706 27.3982C91.5206 27.794 92.0638 28.0974 92.4468 28.3031C92.6384 28.406 92.7901 28.4845 92.8953 28.538C92.9479 28.5647 92.9889 28.5852 93.0174 28.5993L93.0509 28.6158L93.0604 28.6204L93.0633 28.6218L93.0643 28.6223C93.0647 28.6225 93.065 28.6227 93.5 27.7222ZM93.618 16.4402L93.3871 16.0122L93.228 16.5668L92.0221 16.9581C91.3724 17.1689 90.6101 17.1373 90.0533 16.8873C89.5461 16.6597 89.25 16.2867 89.25 15.6915C89.25 15.2521 89.3329 14.9557 89.4455 14.7406C89.5577 14.5262 89.7296 14.335 89.9936 14.1499C90.5724 13.744 91.4322 13.4641 92.6775 13.0743L92.6778 13.0742L92.7195 13.0611C94.1673 12.6076 95.9536 12.0479 97.75 10.932V17.3707C97.75 17.9249 97.5757 18.2379 97.3824 18.4281C97.1719 18.6353 96.8486 18.7831 96.4361 18.8305C96.0236 18.8779 95.5833 18.8159 95.2168 18.6701C94.8402 18.5203 94.633 18.3214 94.5518 18.1709L93.7806 16.7416L93.9149 16.3438L93.618 16.4402Z" fill="#34C759" stroke="white" stroke-width="2"/>
</svg>
